# xmcd CD database file
#
# Track frame offsets:
#	150
#	15082
#	67736
#	133688
#	188925
#	223950
#	293175
#
# Disc length: 4313 seconds
#
# Revision: 0
# Processed by: cddbd v1.5.2PL0 Copyright (c) Steve Scherf et al.
# Submitted via: CDex 1.70beta2
#
DISCID=6210d707
DTITLE=Ornette Coleman - The Paris Concerts 1965 - 1966
DYEAR=1966
DGENRE=Jazz
TTITLE0=Sadness
TTITLE1=Lonely Woman
TTITLE2=Falling Stars
TTITLE3=Clergyman's Dream
TTITLE4=Reminiscence
TTITLE5=Doughnut
TTITLE6=14 Juillet
EXTD=YEAR: 1966
EXTT0=
EXTT1=
EXTT2=
EXTT3=
EXTT4=
EXTT5=
EXTT6=
PLAYORDER=
